<svg xmlns="http://www.w3.org/2000/svg" xmlns:xlink="http://www.w3.org/1999/xlink" fill="#0ea5e9" height="60px" width="60px" version="1.1" id="Layer_1" viewBox="0 0 468.999 468.999" xml:space="preserve">
    <g>
        <g>
            <g>
                <path d="M233.041,314.778c0.096,0.006,2.822,0.006,2.918,0c25.493-0.458,49.39-10.653,67.391-28.779     c18.264-18.389,28.321-42.792,28.321-68.714c0-25.919-10.058-50.321-28.321-68.709c-18.002-18.125-41.899-28.32-67.391-28.778     c-0.091-0.005-2.827-0.005-2.918,0c-25.493,0.458-49.39,10.652-67.392,28.778c-18.264,18.389-28.321,42.79-28.321,68.709     c0,25.922,10.058,50.325,28.321,68.714C183.651,304.125,207.547,314.321,233.041,314.778z M242.336,298.308v-35.256     c9.372,0.517,18.502,1.918,27.016,4.142C262.592,283.344,252.884,294.465,242.336,298.308z M274.796,289.017     c3.301-5.048,6.265-10.766,8.831-17.091c2.973,1.228,5.792,2.559,8.443,3.992C286.925,281.001,281.119,285.412,274.796,289.017z      M301.898,264.239c-4.156-2.426-8.66-4.615-13.479-6.557c2.816-10.335,4.532-21.493,5.057-32.896h22.838     C314.988,239.339,309.845,252.825,301.898,264.239z M316.313,209.785h-22.837v0.001c-0.525-11.402-2.24-22.558-5.057-32.892     c4.817-1.94,9.322-4.131,13.479-6.558C309.844,181.749,314.987,195.234,316.313,209.785z M292.071,158.658     c-2.652,1.433-5.47,2.764-8.441,3.991c-2.564-6.323-5.528-12.039-8.826-17.085C281.124,149.168,286.928,153.576,292.071,158.658z      M242.336,136.27c10.55,3.842,20.258,14.962,27.016,31.112c-8.515,2.224-17.645,3.625-27.016,4.142V136.27z M242.336,186.562     c11.015-0.553,21.792-2.216,31.81-4.912c2.347,8.843,3.802,18.364,4.297,28.136h-36.107V186.562z M242.335,224.785h36.107     c-0.494,9.774-1.949,19.297-4.296,28.14c-10.015-2.696-20.793-4.359-31.811-4.912V224.785z M176.93,275.918     c2.649-1.432,5.467-2.763,8.439-3.991c2.568,6.33,5.54,12.044,8.844,17.095C187.886,285.417,182.078,281.004,176.93,275.918z      M227.336,298.551c-10.807-3.608-20.785-14.864-27.688-31.357c8.718-2.278,18.081-3.696,27.688-4.182V298.551z M227.336,247.979     c-11.25,0.518-22.262,2.197-32.483,4.947c-2.347-8.843-3.802-18.365-4.297-28.14h36.78V247.979z M227.336,136.028v35.535     c-9.606-0.486-18.97-1.904-27.688-4.181C206.546,150.893,216.521,139.638,227.336,136.028z M227.336,186.596v23.189h-36.78     c0.495-9.771,1.95-19.292,4.298-28.135C205.075,184.4,216.087,186.078,227.336,186.596z M194.202,145.56     c-3.301,5.048-6.265,10.765-8.83,17.09c-2.972-1.228-5.792-2.559-8.443-3.993C182.074,153.574,187.879,149.164,194.202,145.56z      M167.101,170.337c4.158,2.426,8.662,4.616,13.48,6.558c-2.817,10.333-4.532,21.489-5.057,32.891h-22.838     C154.012,195.235,159.155,181.75,167.101,170.337z M175.523,224.786c0.525,11.405,2.24,22.562,5.057,32.896     c-4.818,1.941-9.322,4.131-13.479,6.557c-7.947-11.414-13.09-24.9-14.416-39.453H175.523z"/>
                <path d="M444.299,38.156H24.701C11.081,38.156,0,49.237,0,62.857v280.279c0,13.62,11.081,24.701,24.701,24.701h171.943     l-10.687,48.006h-32.852c-4.143,0-7.5,3.358-7.5,7.5c0,4.142,3.357,7.5,7.5,7.5h162.788c4.143,0,7.5-3.358,7.5-7.5     c0-4.142-3.357-7.5-7.5-7.5h-32.851l-10.687-48.006h171.943c13.62,0,24.701-11.081,24.701-24.701V62.857     C469,49.237,457.919,38.156,444.299,38.156z M201.324,415.844l10.687-48.006h44.979l10.686,48.006H201.324z M454,343.136     c0,5.349-4.352,9.701-9.701,9.701H24.701c-5.35,0-9.701-4.352-9.701-9.701V62.857c0-5.349,4.352-9.701,9.701-9.701h419.598     c5.35,0,9.701,4.352,9.701,9.701V343.136z"/>
                <path d="M438.5,61.156h-408c-4.143,0-7.5,3.358-7.5,7.5v268.681c0,4.142,3.357,7.5,7.5,7.5h408c4.143,0,7.5-3.358,7.5-7.5V68.656     C446,64.514,442.643,61.156,438.5,61.156z M431,329.838H38v-0.001V109.812h393V329.838z M431,94.811H38V76.156h393V94.811z"/>
            </g>
        </g>
    </g>
</svg>
